<?xml version="1.0" standalone="no"?>
<!DOCTYPE svg PUBLIC "-//W3C//DTD SVG 20010904//EN"
 "http://www.w3.org/TR/2001/REC-SVG-20010904/DTD/svg10.dtd">
<svg version="1.0" xmlns="http://www.w3.org/2000/svg"
 width="225.000000pt" height="225.000000pt" viewBox="0 0 225.000000 225.000000"
 preserveAspectRatio="xMidYMid meet">

<g transform="translate(0.000000,225.000000) scale(0.100000,-0.100000)"
fill="#fff" stroke="none">
<path d="M982 2240 c-233 -33 -457 -145 -635 -319 -153 -148 -259 -331 -314
-539 -23 -85 -26 -117 -26 -257 0 -140 3 -172 26 -257 55 -208 161 -391 314
-539 451 -440 1119 -436 1564 10 190 189 295 402 329 661 70 538 -310 1077
-858 1216 -109 28 -295 39 -400 24z m98 -174 l0 -94 -56 -7 c-72 -9 -186 -41
-235 -65 -21 -11 -42 -20 -48 -20 -5 0 -29 36 -54 79 l-45 79 78 36 c99 45
238 82 323 85 l37 1 0 -94z m295 63 c43 -11 113 -36 155 -55 l78 -36 -45 -79
c-25 -43 -49 -79 -54 -79 -6 0 -27 9 -48 20 -49 24 -163 56 -235 65 l-56 7 0
96 0 95 64 -7 c35 -3 98 -15 141 -27z m-747 -240 l32 -57 -66 -53 c-36 -30
-91 -84 -121 -121 -30 -37 -58 -66 -62 -64 -3 2 -39 22 -79 45 l-72 42 17 30
c29 49 158 184 226 234 l62 47 15 -23 c8 -12 30 -48 48 -80z m1222 -39 c58
-58 113 -120 123 -137 l18 -32 -78 -45 -78 -46 -40 48 c-50 60 -97 107 -157
157 l-48 40 46 78 45 78 32 -18 c17 -10 79 -65 137 -123z m-560 15 c201 -49
389 -188 492 -365 134 -229 134 -510 2 -749 -49 -88 -197 -236 -285 -285 -240
-132 -508 -132 -748 0 -88 49 -236 197 -285 285 -132 240 -132 508 0 748 45
81 194 231 277 280 165 97 370 129 547 86z m-920 -356 c0 -6 -9 -27 -20 -48
-24 -49 -56 -163 -65 -235 l-7 -56 -96 0 -95 0 7 64 c9 90 42 207 82 296 l36
78 79 -45 c43 -25 79 -49 79 -54z m1759 -133 c11 -43 24 -107 27 -142 l7 -64
-95 0 -96 0 -7 56 c-9 73 -41 186 -66 236 -11 22 -19 44 -17 49 2 5 37 29 78
53 l75 43 37 -76 c20 -42 46 -111 57 -155z m-1844 -352 c9 -72 41 -186 65
-235 11 -21 20 -42 20 -48 0 -5 -36 -29 -79 -54 l-79 -45 -36 78 c-40 89 -73
206 -82 296 l-7 64 95 0 96 0 7 -56z m1871 -8 c-9 -90 -42 -207 -82 -296 l-36
-78 -79 45 c-43 25 -79 48 -79 52 0 3 13 38 29 76 28 66 61 200 61 245 0 19 6
20 96 20 l97 0 -7 -64z m-1626 -486 c19 -20 56 -53 82 -75 l48 -40 -46 -78
-45 -78 -32 18 c-41 23 -237 219 -260 260 l-18 32 78 45 78 46 40 -48 c22 -26
55 -63 75 -82z m1388 81 l72 -42 -17 -30 c-29 -49 -158 -184 -226 -234 l-62
-47 -15 23 c-8 12 -30 48 -47 80 l-33 57 68 55 c37 30 91 85 121 121 29 36 56
64 59 62 4 -2 40 -22 80 -45z m-1129 -261 c49 -24 163 -56 235 -65 l56 -7 0
-96 0 -95 -64 7 c-90 9 -207 42 -296 82 l-78 36 45 79 c25 43 49 79 54 79 6 0
27 -9 48 -20z m774 -59 l45 -79 -78 -36 c-89 -40 -206 -73 -296 -82 l-64 -7 0
95 0 96 56 7 c72 9 187 41 233 65 20 10 41 19 47 20 7 0 32 -36 57 -79z"/>
<path d="M1042 1663 c-63 -53 -61 -149 3 -200 31 -25 35 -33 35 -75 0 -46 -1
-48 -42 -66 -52 -23 -91 -64 -113 -114 -15 -36 -17 -38 -63 -38 -42 0 -50 4
-75 35 -51 64 -147 66 -199 3 -60 -71 -24 -188 65 -208 54 -12 102 4 134 45
25 31 33 35 75 35 46 0 48 -2 63 -37 22 -51 61 -92 113 -115 41 -18 42 -20 42
-66 0 -42 -4 -50 -35 -75 -64 -51 -66 -147 -3 -200 46 -39 120 -39 166 1 63
52 61 148 -3 199 -31 25 -35 33 -35 75 0 46 1 48 43 66 51 23 90 64 112 115
15 35 17 37 63 37 42 0 50 -4 75 -35 51 -64 147 -66 200 -3 39 46 39 120 0
166 -53 63 -149 61 -200 -3 -25 -31 -33 -35 -75 -35 -46 0 -48 2 -63 38 -22
50 -61 91 -112 114 -42 18 -43 20 -43 66 0 42 4 50 35 75 64 51 66 147 3 200
-26 22 -42 27 -83 27 -41 0 -57 -5 -83 -27z m112 -69 c9 -8 16 -22 16 -29 0
-18 -27 -45 -45 -45 -18 0 -45 27 -45 45 0 18 27 45 45 45 7 0 21 -7 29 -16z
m46 -362 c39 -28 63 -86 55 -129 -9 -48 -60 -99 -108 -108 -75 -14 -152 51
-152 130 0 105 121 168 205 107z m-486 -78 c9 -8 16 -22 16 -29 0 -7 -7 -21
-16 -29 -8 -9 -22 -16 -29 -16 -7 0 -21 7 -29 16 -9 8 -16 22 -16 29 0 7 7 21
16 29 8 9 22 16 29 16 7 0 21 -7 29 -16z m880 0 c9 -8 16 -22 16 -29 0 -18
-27 -45 -45 -45 -18 0 -45 27 -45 45 0 18 27 45 45 45 7 0 21 -7 29 -16z
m-440 -440 c9 -8 16 -22 16 -29 0 -7 -7 -21 -16 -29 -8 -9 -22 -16 -29 -16 -7
0 -21 7 -29 16 -9 8 -16 22 -16 29 0 7 7 21 16 29 8 9 22 16 29 16 7 0 21 -7
29 -16z"/>
<path d="M1402 1678 c-30 -30 0 -75 42 -64 27 7 38 35 24 60 -11 19 -49 21
-66 4z"/>
<path d="M1548 1579 c-27 -16 -22 -40 24 -99 22 -30 58 -92 79 -137 33 -71 42
-83 64 -83 39 0 50 33 30 89 -26 70 -75 151 -118 199 -41 44 -51 48 -79 31z"/>
</g>
</svg>
